<!-- icon666.com - MILLIONS OF FREE VECTOR ICONS --><svg id="Layer_1" enable-background="new 0 0 468 468" viewBox="0 0 468 468" xmlns="http://www.w3.org/2000/svg"><g><path d="m116.288 43.875h26.126v32h-26.126z"></path><path d="m53.832 43.875h26.126v32h-26.126z"></path><path d="m180.724 164.118h110.274v32h-110.274z"></path><path d="m463.355 399.28c-3.911-8.283-9.657-15.758-16.614-21.616l-46.276-38.962c11.137-34.308.256-72.919-26.965-96.504v-206.198c0-19.851-16.149-36-36-36h-301.5c-19.851 0-36 16.149-36 36v287.062c0 19.851 16.149 36 36 36h201.51c21.457 33.966 63.842 50.107 102.443 38.654l38.859 48.467c5.723 7.139 13.05 13.046 21.189 17.084 18.304 9.081 39.886 4.627 54.307-9.339 14.051-14.401 17.686-36.364 9.047-54.648-3.911-8.283 8.639 18.284 0 0zm-427.355-367.28h301.5c2.206 0 4 1.794 4 4v50.424h-309.5v-50.424c0-2.206 1.794-4 4-4zm0 295.062c-2.206 0-4-1.794-4-4v-204.638h309.5v105.843c-33.005-10.443-69.971-.609-93.554 24.663h-67.222v32h.006v.083h47.828c-5.092 14.63-6.322 30.804-3.543 46.049zm278.21 42.374c-32.348 0-58.665-26.324-58.665-58.68s26.317-58.68 58.665-58.68 58.664 26.324 58.664 58.68c.001 32.356-26.316 58.68-58.664 58.68zm117.197 62.132c-4.541 4.654-11.448 5.871-17.187 3.021-3.998-1.984-7.61-4.9-10.443-8.433l-34.688-43.264c5.881-4.487 11.198-9.676 15.828-15.441l41.216 34.701c3.462 2.914 6.327 6.648 8.288 10.8 2.957 6.258 1.745 13.739-3.014 18.616z"></path><path d="m100.389 291.424-18.566-21.756 24.34-20.782 8.409 9.853 25.901-21.126 20.224 24.806-38.026 31.017c-2.967 2.421-12.334 7.653-22.282-2.012z"></path><path d="m100.389 206.587-18.566-21.756 24.34-20.782 8.409 9.853 25.901-21.126 20.224 24.806-38.026 31.017c-2.967 2.421-13.667 7.465-22.282-2.012z"></path><path d="m296.541 342.751-28.483-22.005 19.561-25.334 16.865 13.028 32.325-35.154 23.554 21.668-42.264 45.963c-3.266 4.833-11.932 7.916-21.558 1.834z"></path></g></svg>