<!-- icon666.com - MILLIONS OF FREE VECTOR ICONS --><svg id="Capa_1" enable-background="new 0 0 512 512" viewBox="0 0 512 512" xmlns="http://www.w3.org/2000/svg"><path d="m507.607 125.77c2.813-2.813 4.394-6.628 4.394-10.606 0-3.979-1.581-7.793-4.394-10.606l-84.853-84.853c-5.857-5.858-15.355-5.858-21.213 0l-137.885 137.884-110.76-110.758c-.003-.003-.006-.007-.009-.01-1.629-1.63-3.767-2.92-5.863-3.624l-127.28-42.426c-5.391-1.796-11.332-.394-15.35 3.624s-5.42 9.96-3.624 15.35l42.426 127.279c.686 2.056 1.98 4.219 3.624 5.863l110.769 110.769-137.885 137.886c-5.858 5.858-5.858 15.355 0 21.213l84.853 84.853c5.854 5.854 15.356 5.858 21.213 0 15.241-15.241 121.561-121.56 137.886-137.886l128.971 128.971c17.579 17.579 45.991 17.652 63.569.071l42.57-42.573c17.58-17.581 17.568-45.926-.024-63.517l-129.02-129.019c15.977-15.977 122.082-122.082 137.885-137.885zm-114.981 203.215-21.214 21.214-250.346-250.345 21.214-21.214s110.767 110.767 110.769 110.769.004.003.005.005c.336.336 137.524 137.524 139.572 139.571zm42.426 42.427-63.641 63.64-21.213-21.213 63.64-63.641zm-356.412-229.132 21.213-21.214 250.346 250.346-21.213 21.213zm35.872-78.298-50.53 50.53-25.265-75.794zm106.717 305.74-10.607-10.607c-5.857-5.858-15.355-5.858-21.213 0s-5.858 15.355 0 21.213l10.607 10.607-21.213 21.213-10.606-10.606c-5.858-5.858-15.355-5.857-21.213 0-5.858 5.858-5.858 15.355 0 21.213l10.607 10.607-42.427 42.426-63.639-63.64 127.279-127.279 63.64 63.64zm256.323 65.256-42.571 42.574c-5.843 5.844-15.263 5.805-21.141-.072l-21.215-21.215 63.641-63.64 21.263 21.263c5.849 5.849 5.895 15.219.023 21.09zm-192.683-256.176 127.278-127.278 63.64 63.639-42.426 42.427-10.607-10.607c-5.857-5.857-15.355-5.858-21.213 0-5.857 5.858-5.857 15.355 0 21.213l10.607 10.606-21.213 21.213-10.607-10.607c-5.857-5.858-15.355-5.858-21.213 0s-5.858 15.355 0 21.213l10.607 10.607-21.213 21.213z"></path></svg>