<!-- icon666.com - MILLIONS OF FREE VECTOR ICONS --><svg id="Layer_1" enable-background="new 0 0 512.177 512.177" viewBox="0 0 512.177 512.177" xmlns="http://www.w3.org/2000/svg"><path d="m315.144 119.444c11.874 0 21.534-9.663 21.534-21.541v-28.09c0-11.877-9.66-21.54-21.534-21.54h-213.02c-11.874 0-21.534 9.663-21.534 21.54v28.091c0 11.877 9.66 21.541 21.534 21.541h213.02zm-214.378-21.54v-28.091c0-.727.635-1.363 1.358-1.363h213.02c.724 0 1.358.637 1.358 1.363v28.091c0 .739-.622 1.364-1.358 1.364h-213.02c-.736 0-1.358-.625-1.358-1.364z"></path><path d="m379.71 184.985c-34.369 0-62.33 27.987-62.33 62.387 0 34.384 27.961 62.358 62.33 62.358s62.33-27.974 62.33-62.358c.001-34.4-27.96-62.387-62.33-62.387zm0 104.569c-23.244 0-42.154-18.922-42.154-42.182 0-23.275 18.91-42.21 42.154-42.21s42.154 18.935 42.154 42.21c.001 23.259-18.909 42.182-42.154 42.182z"></path><path d="m80.59 219.678c0 12.815 10.435 23.241 23.262 23.241h100.604c12.827 0 23.262-10.426 23.262-23.241v-48.131c0-12.831-10.435-23.27-23.262-23.27h-100.604c-12.827 0-23.262 10.439-23.262 23.27zm20.176-48.131c0-1.677 1.413-3.093 3.086-3.093h100.604c1.673 0 3.086 1.416 3.086 3.093v48.131c0 1.661-1.413 3.064-3.086 3.064h-100.604c-1.673 0-3.086-1.403-3.086-3.064z"></path><path d="m99.432 288.442h118.197c5.571 0 10.088-4.517 10.088-10.088s-4.517-10.088-10.088-10.088h-118.197c-5.571 0-10.088 4.517-10.088 10.088s4.517 10.088 10.088 10.088z"></path><path d="m242.702 317.276h-143.27c-5.571 0-10.088 4.517-10.088 10.088s4.517 10.088 10.088 10.088h143.27c5.571 0 10.088-4.517 10.088-10.088s-4.517-10.088-10.088-10.088z"></path><path d="m223.208 376.374c0 5.572 4.517 10.088 10.088 10.088h44.281c5.571 0 10.088-4.517 10.088-10.088s-4.517-10.088-10.088-10.088h-44.281c-5.571 0-10.088 4.516-10.088 10.088z"></path><path d="m99.432 366.286c-5.571 0-10.088 4.517-10.088 10.088s4.517 10.088 10.088 10.088h44.083c5.571 0 10.088-4.517 10.088-10.088s-4.517-10.088-10.088-10.088z"></path><path d="m44.527 322.684c5.571 0 10.088-4.517 10.088-10.088v-.17c0-5.572-4.517-10.088-10.088-10.088s-10.088 4.517-10.088 10.088v.17c0 5.571 4.517 10.088 10.088 10.088z"></path><path d="m188.307 366.286c-5.571 0-10.088 4.517-10.088 10.088s4.517 10.088 10.088 10.088h.198c5.571 0 10.088-4.517 10.088-10.088s-4.517-10.088-10.088-10.088z"></path><path d="m487.424 215.315h-3.904c-1.995-6.48-4.597-12.762-7.783-18.787l2.815-2.827c8.867-8.872 8.867-23.307.001-32.178l-13.09-13.096c-4.289-4.292-10.008-6.655-16.102-6.655s-11.813 2.363-16.103 6.656l-2.803 2.804c-6.116-3.236-12.491-5.866-19.07-7.866v-3.765c0-10.78-7.524-19.829-17.594-22.185v-87.4c.001-16.551-13.458-30.016-30.002-30.016h-299.345c-16.545 0-30.005 13.465-30.005 30.016v237.595c0 5.572 4.517 10.088 10.088 10.088s10.088-4.517 10.088-10.088v-237.595c0-5.425 4.409-9.839 9.829-9.839h299.345c5.419 0 9.828 4.414 9.828 9.839v86.798h-3.511c-12.562 0-22.78 10.223-22.78 22.788v4c-6.423 2.007-12.646 4.616-18.612 7.806l-2.751-2.752c-4.289-4.292-10.003-6.655-16.087-6.655-6.085 0-11.799 2.363-16.081 6.648l-13.145 13.124c-8.839 8.894-8.829 23.332.02 32.186l2.911 2.913c-3.101 5.91-5.64 12.076-7.599 18.446h-3.985c-12.562 0-22.78 10.223-22.78 22.788v18.51c0 12.565 10.219 22.787 22.78 22.787h4.025c1.988 6.437 4.573 12.661 7.729 18.616l-2.826 2.828c-8.867 8.872-8.867 23.307-.001 32.178l13.09 13.096c4.289 4.292 10.008 6.655 16.102 6.655s11.813-2.363 16.09-6.644l2.822-2.814c5.964 3.163 12.203 5.751 18.666 7.743v4.085c0 12.549 10.206 22.759 22.752 22.759h3.171v86.883c0 15.006-12.188 27.215-27.167 27.215-14.995 0-27.195-12.208-27.195-27.215v-26.673c0-12.565-10.206-22.788-22.752-22.788h-241.888v-57.914c0-5.572-4.517-10.088-10.088-10.088s-10.088 4.517-10.088 10.088v57.914h-9.658c-12.562-.003-22.781 10.22-22.781 22.785v26.673c0 26.132 21.237 47.392 47.343 47.392h297.107c26.105 0 47.343-21.26 47.343-47.392v-87.401c10.239-2.218 17.934-11.345 17.934-22.241v-4.067c6.464-1.982 12.728-4.576 18.734-7.759l2.8 2.801c4.289 4.292 10.008 6.655 16.102 6.655s11.813-2.363 16.103-6.656l13.088-13.095c8.867-8.872 8.867-23.307.013-32.166l-2.827-2.838c3.152-5.964 5.732-12.188 7.719-18.618h3.968c12.546 0 22.752-10.222 22.752-22.787v-18.51c-.003-12.565-10.209-22.788-22.755-22.788zm-438.081 276.685c-14.979 0-27.167-12.208-27.167-27.215v-26.673c0-1.391 1.217-2.611 2.604-2.611h271.722c1.396 0 2.576 1.195 2.576 2.611v26.673c0 10.12 3.187 19.508 8.609 27.215zm440.657-235.387c0 1.415-1.18 2.61-2.576 2.61h-11.7c-4.706 0-8.787 3.254-9.835 7.842-2.204 9.65-6.003 18.817-11.29 27.244-2.496 3.979-1.916 9.153 1.398 12.48l8.285 8.318c.988.989.988 2.662-.001 3.651l-13.088 13.095c-.646.646-1.425.743-1.832.743s-1.186-.097-1.831-.742l-8.272-8.277c-3.33-3.332-8.521-3.915-12.508-1.407-8.478 5.333-17.671 9.139-27.326 11.31-4.604 1.035-7.874 5.124-7.874 9.842v11.82c0 1.4-1.18 2.583-2.576 2.583h-18.528c-1.396 0-2.576-1.183-2.576-2.583v-11.82c0-4.708-3.255-8.789-7.845-9.835-9.703-2.213-18.874-6.018-27.257-11.31-1.658-1.046-3.525-1.557-5.382-1.557-2.601 0-5.18 1.004-7.126 2.945l-8.313 8.289c-.646.646-1.425.743-1.832.743s-1.186-.097-1.831-.743l-13.09-13.096c-.988-.989-.988-2.662.001-3.651l8.301-8.305c3.33-3.332 3.911-8.526 1.398-12.511-5.294-8.397-9.098-17.558-11.307-27.226-1.048-4.588-5.129-7.842-9.835-7.842h-11.757c-1.388 0-2.604-1.22-2.604-2.61v-18.51c0-1.391 1.217-2.611 2.604-2.611h11.729c4.711 0 8.795-3.261 9.838-7.855 2.181-9.606 5.937-18.729 11.162-27.115 2.48-3.981 1.89-9.148-1.427-12.466l-8.358-8.362c-.993-.994-.984-2.688-.007-3.672l13.124-13.104c.614-.614 1.327-.743 1.818-.743.49 0 1.203.129 1.816.742l8.244 8.249c3.34 3.342 8.552 3.917 12.539 1.388 8.438-5.352 17.594-9.193 27.212-11.418 4.575-1.058 7.814-5.133 7.814-9.829v-11.707c0-1.416 1.193-2.611 2.604-2.611h18.5c1.412 0 2.604 1.195 2.604 2.611v11.537c0 4.727 3.282 8.82 7.896 9.847 9.764 2.173 19.067 6.008 27.654 11.396 3.984 2.5 9.171 1.916 12.498-1.414l8.271-8.276c.646-.646 1.425-.743 1.832-.743s1.186.096 1.831.742l13.09 13.096c.988.989.988 2.662-.013 3.664l-8.272 8.306c-3.313 3.326-3.894 8.498-1.401 12.476 5.329 8.505 9.146 17.727 11.348 27.408 1.043 4.593 5.127 7.853 9.837 7.853h11.644c1.396 0 2.576 1.195 2.576 2.611v18.51z"></path></svg>