<!-- icon666.com - MILLIONS OF FREE VECTOR ICONS --><svg xmlns="http://www.w3.org/2000/svg" viewBox="0 0 32 32" fill="none"><g clip-path="url(#clip0_1304_377)"><path fill-rule="evenodd" clip-rule="evenodd" d="M23 23C23 23.5523 23.4477 24 24 24H28C28.5523 24 29 23.5523 29 23V10H31C31.388 10 31.741 9.77554 31.9056 9.42416C32.0702 9.07277 32.0166 8.6579 31.7682 8.35982L26.7682 2.35982C26.5782 2.13182 26.2968 2 26 2C25.7032 2 25.4218 2.13182 25.2318 2.35982L20.2318 8.35982C19.9834 8.6579 19.9298 9.07277 20.0944 9.42416C20.259 9.77554 20.612 10 21 10H23V23ZM25 22V9C25 8.44771 24.5523 8 24 8H23.1351L26 4.56205L28.865 8H28C27.4477 8 27 8.44771 27 9V22H25Z" fill="black"></path><path fill-rule="evenodd" clip-rule="evenodd" d="M15 12C14.4477 12 14 12.4477 14 13V15H11C10.4477 15 10 15.4477 10 16V18H7C6.44772 18 6 18.4477 6 19V21H3C2.44772 21 2 21.4477 2 22V25H1C0.447715 25 0 25.4477 0 26V29C0 29.5523 0.447715 30 1 30H21C21.5523 30 22 29.5523 22 29V26C22 25.4477 21.5523 25 21 25H20V13C20 12.4477 19.5523 12 19 12H15ZM18 25V14H16V25H18ZM14 17H12V25H14V17ZM2 27V28H20V27H2ZM8 20H10V25H8V20ZM6 23H4V25H6V23Z" fill="black"></path><path fill-rule="evenodd" clip-rule="evenodd" d="M24 30C23.4477 30 23 29.5523 23 29V26C23 25.4477 23.4477 25 24 25H28C28.5523 25 29 25.4477 29 26V29C29 29.5523 28.5523 30 28 30H24ZM25 27V28H27V27H25Z" fill="black"></path></g><defs><clipPath id="clip0_1304_377"><rect width="32" height="32" fill="white"></rect></clipPath></defs></svg>