<!-- icon666.com - MILLIONS OF FREE VECTOR ICONS --><svg id="Capa_1" enable-background="new 0 0 512 512" viewBox="0 0 512 512" xmlns="http://www.w3.org/2000/svg"><g><path d="m467 6h-422c-24.813 0-45 20.187-45 45v320c0 30.327 24.673 55 55 55h126.73l-25 50h-20.73c-8.284 0-15 6.716-15 15s6.716 15 15 15h240c8.284 0 15-6.716 15-15s-6.716-15-15-15h-20.73l-25-50h126.73c30.327 0 55-24.673 55-55v-320c0-24.813-20.187-45-45-45zm-276.73 470 25-50h81.46l25 50zm291.73-105c0 13.785-11.215 25-25 25h-402c-13.785 0-25-11.215-25-25v-5h452zm0-35h-452v-285c0-8.271 6.729-15 15-15h422c8.271 0 15 6.729 15 15z"></path><path d="m145.394 240.394-14.394 14.393v-137.574l14.393 14.393c5.858 5.858 15.355 5.858 21.213 0s5.858-15.355 0-21.213l-40-40c-5.857-5.858-15.355-5.858-21.213 0l-40 40c-5.858 5.858-5.858 15.355 0 21.213s15.355 5.858 21.213 0l14.394-14.393v137.573l-14.394-14.393c-5.857-5.858-15.355-5.858-21.213 0s-5.858 15.355 0 21.213l40 40c5.858 5.858 15.355 5.858 21.213 0l40-40c5.858-5.858 5.858-15.355 0-21.213-5.857-5.858-15.355-5.858-21.212.001z"></path><path d="m436 66h-220c-8.284 0-15 6.716-15 15v210c0 8.284 6.716 15 15 15h220c8.284 0 15-6.716 15-15v-210c0-8.284-6.716-15-15-15zm-125 30h30v38.787l-15 15-15-15zm110 180h-190v-180h50v45c0 3.978 1.58 7.793 4.393 10.606l30 30c5.858 5.858 15.355 5.858 21.213 0l30-30c2.814-2.812 4.394-6.628 4.394-10.606v-45h50z"></path></g></svg>