<!-- icon666.com - MILLIONS OF FREE VECTOR ICONS --><svg version="1.1" id="Capa_1" xmlns="http://www.w3.org/2000/svg" xmlns:xlink="http://www.w3.org/1999/xlink" x="0px" y="0px" viewBox="0 0 511.996 511.996" style="enable-background:new 0 0 511.996 511.996;" xml:space="preserve"><g><g><g><path d="M210.625,237.565c6.922,5.831,17.252,4.979,23.101-1.917c5.84-6.913,4.979-17.252-1.917-23.101 c-21.042-17.803-29.34-51.917-19.285-79.34c4.153-11.369,15.149-30.423,41.995-30.423c13.685,0,24.228,4.535,32.206,13.871 c12.318,14.395,15.415,36.919,13.09,51.704c-6.638,41.543-36.528,65.522-58.449,79.952c-7.552,4.979-9.647,15.14-4.668,22.702 c3.151,4.775,8.369,7.375,13.703,7.375c3.097,0,6.221-0.879,8.99-2.707c27.086-17.838,64.102-47.835,72.79-102.201 c3.319-21.077-0.071-54.189-20.536-78.124c-14.182-16.578-33.928-25.337-57.118-25.337c-33.653,0-60.854,19.409-72.773,51.917 C166.98,162.254,179.12,210.879,210.625,237.565z"></path><path d="M388.244,315.308c-12.38-37.061-64.874-60.171-70.82-62.682c-4.047-1.722-8.626-1.731-12.691-0.036 c-4.056,1.704-7.259,4.952-8.901,9.043c-7.828,19.542-23.491,31.683-40.877,31.683c-17.306,0-32.375-11.848-40.309-31.683 c-1.633-4.082-4.837-7.348-8.901-9.043s-8.644-1.686-12.691,0.035c-5.946,2.512-58.44,25.612-70.811,62.691 c-7.428,22.284-7.153,38.046-6.869,54.748c0.062,3.355,0.124,6.86,0.124,10.57c0,9.052,7.331,16.383,16.383,16.383 c9.052,0,16.383-7.331,16.383-16.383c0-3.914-0.062-7.597-0.124-11.138c-0.266-15.593-0.461-26.864,5.192-43.823 c4.464-13.374,22.826-27.139,38.907-36.138c14.457,22.888,37.354,36.528,62.718,36.537c0,0,0,0,0.009,0 c25.639,0,48.722-13.649,63.259-36.546c16.099,8.99,34.469,22.773,38.933,36.138c3.009,9.026,6.541,30.875,7.144,83.547H130.354 c-9.052,0-16.383,7.331-16.383,16.383c0,9.052,7.331,16.383,16.383,16.383h251.314c9.043,0,16.383-7.331,16.383-16.383 c0-1.873-0.32-3.683-0.896-5.36C397.048,384.868,395.841,338.133,388.244,315.308z"></path><path d="M484.171,217.828c0-47.267-33.183-85.721-73.971-85.721c-23.039,0-44.595,12.203-57.677,32.65 c-14.776,23.083-15.903,52.245-3.088,80.006c3.798,8.218,13.534,11.821,21.734,8.005c8.209-3.789,11.803-13.516,8.005-21.734 c-11.005-23.846-4.136-40.691,0.932-48.625c6.931-10.818,18.451-17.545,30.085-17.545c22.728,0,41.214,23.766,41.214,52.964 c0,29.224-18.486,53-41.214,53c-9.052,0-16.383,7.331-16.383,16.383c0,9.052,7.331,16.383,16.383,16.383 C450.97,303.593,484.162,265.121,484.171,217.828z"></path><path d="M505.949,350.815c-5.742-30.804-24.015-47.781-34.398-55.165c-7.366-5.227-17.59-3.505-22.844,3.869 c-5.236,7.375-3.506,17.599,3.869,22.844c7.748,5.511,17.714,15.966,21.175,34.496c2.245,11.901,3.639,25.976,4.464,36.741 h-47.329c-9.052,0-16.383,7.331-16.383,16.383c0,9.052,7.331,16.383,16.383,16.383h64.732c4.455,0,8.706-1.81,11.795-5.023 c3.088-3.213,4.739-7.535,4.57-11.981C511.931,408.004,510.688,375.949,505.949,350.815z"></path><path d="M101.813,270.845c-22.728,0-41.214-23.775-41.214-53c0-29.198,18.486-52.964,41.214-52.964 c11.652,0,23.19,6.727,30.112,17.545c5.068,7.916,11.937,24.769,0.941,48.625c-3.789,8.218-0.195,17.945,8.023,21.734 c8.191,3.781,17.936,0.195,21.734-8.023c12.797-27.769,11.661-56.922-3.115-80.005c-13.09-20.447-34.656-32.641-57.703-32.641 c-40.788,0-73.971,38.454-73.971,85.721c0,47.284,33.183,85.756,73.971,85.756c9.052,0,16.392-7.313,16.392-16.365 C118.195,278.176,110.865,270.845,101.813,270.845z"></path><path d="M81.134,393.609H33.788c0.825-10.756,2.219-24.84,4.482-36.795c3.301-17.865,12.762-28.159,20.11-33.653 c7.251-5.405,8.733-15.682,3.319-22.923c-5.405-7.251-15.699-8.724-22.923-3.319c-12.043,8.981-27.494,25.639-32.712,53.87 c-4.766,25.169-5.999,57.242-6.053,58.591c-0.16,4.446,1.482,8.777,4.579,11.981c3.088,3.195,7.339,5.005,11.794,5.005h64.75 c9.052,0,16.383-7.322,16.383-16.374C97.517,400.94,90.187,393.609,81.134,393.609z"></path></g></g></g></svg>