<svg width="194" height="27" viewBox="0 0 194 27" fill="none" xmlns="http://www.w3.org/2000/svg">
<path d="M18.1609 15.9285C17.7153 17.1849 16.9018 18.2746 15.8283 19.0531C14.7549 19.8315 13.4722 20.2619 12.1508 20.287C8.57054 20.287 5.68826 17.1422 5.68826 13.2664C5.68826 9.39076 8.59639 6.24586 12.1508 6.24586C13.4722 6.271 14.7549 6.7014 15.8283 7.47987C16.9018 8.25835 17.7153 9.34809 18.1609 10.6044H24.0095C23.36 7.65499 21.6552 5.05135 19.222 3.29254C16.7886 1.53374 13.798 0.743508 10.8232 1.07333C7.84852 1.40315 5.09899 2.82981 3.10174 5.07987C1.10448 7.32991 0 10.245 0 13.2664C0 16.2878 1.10448 19.2029 3.10174 21.453C5.09899 23.703 7.84852 25.1297 10.8232 25.4595C13.798 25.7893 16.7886 24.9992 19.222 23.2404C21.6552 21.4816 23.36 18.8779 24.0095 15.9285H18.1609Z" fill="#002F6C"/>
<path d="M41.0454 20.201C39.5046 19.8285 38.133 18.9429 37.1518 17.6869C36.1705 16.4309 35.6369 14.878 35.6369 13.2783C35.6369 11.6787 36.1705 10.1257 37.1518 8.86977C38.133 7.61383 39.5046 6.72821 41.0454 6.35567V1.05762C38.0158 1.32231 35.1946 2.72441 33.1392 4.98701C31.0837 7.24961 29.9434 10.2082 29.9434 13.2783C29.9434 16.3486 31.0837 19.3071 33.1392 21.5697C35.1946 23.8323 38.0158 25.2344 41.0454 25.4991V20.201Z" fill="#002F6C"/>
<path d="M43.127 1.05762V6.35567C44.6677 6.72821 46.0393 7.61383 47.0206 8.86977C48.0018 10.1257 48.5355 11.6787 48.5355 13.2783C48.5355 14.878 48.0018 16.4309 47.0206 17.6869C46.0393 18.9429 44.6677 19.8285 43.127 20.201V25.4991C46.1565 25.2344 48.9777 23.8323 51.0332 21.5697C53.0886 19.3071 54.229 16.3486 54.229 13.2783C54.229 10.2082 53.0886 7.24961 51.0332 4.98701C48.9777 2.72441 46.1565 1.32231 43.127 1.05762Z" fill="#002F6C"/>
<path d="M133.091 8.54102H126.842V25.2116H133.091V8.54102Z" fill="#002F6C"/>
<path d="M120.585 1.34668L118.834 6.46858H139.197L140.948 1.34668H120.585Z" fill="#002F6C"/>
<path d="M174.171 20.084L172.42 25.2124H191.988L193.74 20.084H174.171Z" fill="#002F6C"/>
<path d="M180.874 1.34668H174.625V18.0173H180.874V1.34668Z" fill="#002F6C"/>
<path d="M153.441 1.34668H159.568L168.376 25.214H162.255L153.441 1.34668Z" fill="#002F6C"/>
<path d="M151.993 3.79785L154.908 11.1773L149.498 25.2119H143.379L151.993 3.79785Z" fill="#002F6C"/>
<path d="M73.1366 8.09322L66.4285 1.34668H60.8513V25.214H66.4285V8.71306L73.1366 15.1921V8.09322Z" fill="#002F6C"/>
<path d="M81.695 1.34668L74.9805 8.09322V15.1921L81.695 8.71306V25.214H87.2656V1.34668H81.695Z" fill="#002F6C"/>
<path d="M112.625 6.46858H94.3945L96.4431 1.34668H114.667L112.625 6.46858Z" fill="#FF0000"/>
<path d="M112.625 25.2124H94.3945L96.4431 20.084H114.667L112.625 25.2124Z" fill="#FF0000"/>
<path d="M111.83 15.8432H94.3945L96.4431 10.7148H113.872L111.83 15.8432Z" fill="#FF0000"/>
</svg>
